C:\GBW_MyPrograms\PredSimResults\Vitruvian_man\IG_v16ms_QR.mot
version=1
nRows=6
nColumns=35
inDegrees=yes
endheader
                time	         pelvis_tilt	           pelvis_tx	           pelvis_ty	       hip_flexion_r	        knee_angle_r	       ankle_angle_r	         mtp_angle_r	       hip_flexion_l	        knee_angle_l	       ankle_angle_l	         mtp_angle_l	    lumbar_extension	          arm_flex_r	          arm_flex_l	        elbow_flex_r	        elbow_flex_l	hamstrings_r/activation	bifemsh_r/activation	glut_max_r/activation	iliopsoas_r/activation	rect_fem_r/activation	  vasti_r/activation	gastroc_r/activation	 soleus_r/activation	tib_ant_r/activation	hamstrings_l/activation	bifemsh_l/activation	glut_max_l/activation	iliopsoas_l/activation	rect_fem_l/activation	  vasti_l/activation	gastroc_l/activation	 soleus_l/activation	tib_ant_l/activation	
          1.60009021	         -1.74751970	          2.53852011	          0.95381210	        -21.49260920	         -4.77727691	          2.17250858	         21.95165536	         29.04419405	         -1.60468389	          4.32698138	          0.20963683	        -11.97854300	         31.15454618	         31.15541773	        104.08481865	        104.08645706	          0.08400842	          0.26159950	          0.05008400	          0.61043601	          0.05003608	          0.05004258	          0.35326132	          0.29064461	          0.05001902	          0.64870621	          0.05128767	          0.10737687	          0.05864579	          0.06028463	          0.05041767	          0.05027949	          0.05351878	          0.43860316	
          1.61075748	         -2.46361714	          2.56107474	          0.95140443	        -20.63229548	         -7.27665826	          0.91667133	         23.00700642	         28.20191861	         -0.84551344	          3.18409296	          0.24632761	        -10.57347182	         31.50890451	         31.50902856	        106.51572725	        106.51722018	          0.08757353	          0.22216390	          0.05007803	          0.51832367	          0.05002922	          0.05002716	          0.29994090	          0.24677528	          0.05001445	          0.58316542	          0.05033491	          0.14400601	          0.05004511	          0.05123568	          0.05310813	          0.05882247	          0.05741349	          0.55076108	
          1.62142475	         -3.18065885	          2.58409065	          0.94932040	        -19.49968625	        -10.23082746	         -0.68537326	         23.88428564	         27.29190663	         -0.23795878	          1.84482642	          0.26270470	         -9.06192045	         31.45677401	         31.45605057	        108.62810843	        108.62943675	          0.08875132	          0.18867205	          0.05011187	          0.44008825	          0.05002331	          0.05001766	          0.25466727	          0.20952572	          0.05001067	          0.51183347	          0.06336759	          0.17644476	          0.05002669	          0.05005052	          0.05035621	          0.05003078	          0.05000940	          0.73744865	
          1.63209202	         -3.89932605	          2.60693107	          0.94794588	        -18.01762291	        -13.65011268	         -2.79935259	         24.49495132	         26.37909872	          0.56320245	         -0.40581067	          0.23721842	         -7.53222606	         31.02295902	         31.02127417	        110.38989950	        110.39105223	          0.07937278	          0.16024712	          0.05005983	          0.37365944	          0.05001514	          0.05000817	          0.21622728	          0.17789856	          0.05002136	          0.46009098	          0.05448292	          0.20054804	          0.05002249	          0.05006507	          0.05083512	          0.05002917	          0.05001128	          0.84655758	
          1.64275929	         -4.61592799	          2.62922147	          0.94746526	        -16.19225034	        -17.49121961	         -5.18340062	         24.25065547	         25.59110574	          1.15174087	         -2.33619978	          0.18259848	         -6.04037086	         30.21249086	         30.20975038	        111.80430178	        111.80526028	          0.06740858	          0.13609281	          0.05003490	          0.31725740	          0.05002019	          0.05000643	          0.18359004	          0.15104548	          0.05004195	          0.41237766	          0.05151013	          0.21802335	          0.05002950	          0.05007852	          0.05089393	          0.05002559	          0.05001118	          0.91032147	
          1.65342655	         -5.31578065	          2.65084990	          0.94793874	        -14.10682696	        -21.62033292	         -7.65207276	         22.74118801	         24.92345092	          1.49620625	         -3.81044716	          0.13917033	         -4.62038145	         29.01824306	         29.01434757	        112.89616286	        112.89691866	          0.05724876	          0.11557947	          0.05003018	          0.26936930	          0.05003419	          0.05000857	          0.15588009	          0.12824595	          0.29367482	          0.37185517	          0.05110652	          0.24211088	          0.05002736	          0.05007217	          0.05121940	          0.05002675	          0.05001263	          0.94758432	
